<svg height="500pt" preserveAspectRatio="xMidYMid meet" viewBox="0 0 500 500" width="500pt" xmlns="http://www.w3.org/2000/svg"><g transform="matrix(.1 0 0 -.1 0 500)"><path d="m2379 4650c-207-52-373-216-418-410-16-69-13-219 5-281 52-173 181-312 347-374 35-13 46-22 43-34-3-9-28-106-56-216s-56-217-61-237l-10-38h-399-398l-76-228-76-227v-1133-1132h1220 1220v1132 1133l-76 227-76 228h-398-399l-10 38c-5 20-33 127-61 237s-53 207-56 216c-3 12 8 21 43 34 166 62 295 201 347 374 18 62 21 212 5 281-27 117-112 243-214 315-98 70-180 97-305 101-58 2-121-1-141-6zm230-65c176-42 320-183 366-360 62-242-76-496-317-581-32-11-38-11-38 1 0 7-2 19-5 27-4 9 18 24 65 46 277 129 336 498 113 702-242 221-625 111-709-204-53-198 48-410 236-498 47-22 69-37 65-46-3-8-5-20-5-27 0-12-6-12-38-1-112 40-221 132-274 232-102 190-66 422 89 577 122 122 288 170 452 132zm16-136c116-43 202-140 232-262 29-122-9-248-104-338-47-46-118-89-147-89-13 0-26 20-26 40 0 4 24 20 54 34 107 53 168 150 169 271 1 118-61 221-166 277-35 19-58 23-137 23s-102-4-137-23c-105-56-167-159-166-277 1-121 62-218 169-271 30-14 54-30 54-34 0-20-13-40-26-40-29 0-100 43-147 89-60 57-92 118-108 204-10 56-10 76 4 134 19 76 71 159 128 205 95 76 241 100 354 57zm-53-111c51-15 126-82 149-133 26-57 24-138-5-201-35-75-134-149-155-115-4 6-18 56-31 111s-26 100-30 100-17-45-30-100-27-105-31-111c-21-34-120 40-155 115-48 102-25 208 59 282 69 61 144 78 229 52zm-52-552c0-8 3-21 6-30 5-13-1-16-26-16s-31 3-26 16c3 9 6 22 6 30s9 14 20 14 20-6 20-14zm30-120c0-8 3-21 6-30 5-14-3-16-56-16s-61 2-56 16c3 9 6 22 6 30 0 10 14 14 50 14s50-4 50-14zm89-353c34-133 61-244 61-247s-90-6-200-6-200 3-200 6 27 114 61 247l61 242h78 78zm921-1763v-1050h-419-419l-4 253c-3 223-5 256-22 287-88 165-302 168-389 5-21-37-22-57-25-292l-4-253h-419-419v1050 1050h1060 1060z"/><path d="m1590 2340v-110h270 270v110 110h-270-270z"/><path d="m2287 2444c-4-4-7-54-7-111v-103h220 221l-3 108-3 107-211 3c-115 1-213-1-217-4z"/><path d="m2870 2340v-110h270 270v110 110h-270-270z"/><path d="m1590 1910v-110h270 270v110 110h-270-270z"/><path d="m2284 2007c-2-7-3-56-2-108l3-94h215 215v105 105l-213 3c-171 2-213 0-218-11z"/><path d="m2870 1910v-110h270 270v110 110h-270-270z"/><path d="m1590 1485v-105h270 270v105 105h-270-270z"/><path d="m2280 1485v-105h220 220v105 105h-220-220z"/><path d="m2870 1485v-105h270 270v105 105h-270-270z"/><path d="m1590 910v-260h100 100l-2 258-3 257-97 3-98 3z"/><path d="m1940 910v-260h95 95v260 260h-95-95z"/><path d="m2870 910v-260h95 95v260 260h-95-95z"/><path d="m3217 1163c-4-3-7-120-7-260v-253h100 100v260 260h-93c-52 0-97-3-100-7z"/></g></svg>