<svg viewBox="0 0 1181.25 2092.46" xmlns="http://www.w3.org/2000/svg"><path d="m1106.25 773.67-385.63.11-63.11-246.16a268.09 268.09 0 0 0 122.62-449.12 268 268 0 1 0 -379 379 266.43 266.43 0 0 0 122.62 70.12l-63.14 246.23-385.61.15-75 225v1093.5h1181.25v-1093.5zm-683.92-337.38a237.77 237.77 0 1 1 227.73 62.26l-7.47-29.12c89.63-23.14 156-104.68 156-201.43 0-114.69-93.3-208-208-208s-208 93.31-208 208c0 96.75 66.41 178.29 156 201.43l-7.47 29.12a236.61 236.61 0 0 1 -108.79-62.26zm168.29 39.71a209.4 209.4 0 0 0 22.38-1.21l7.53 29.36a242.63 242.63 0 0 1 -59.81 0l7.53-29.36a209.35 209.35 0 0 0 22.37 1.21zm-14.83-30.62 7.61-29.67c2.39.11 4.8.18 7.22.18s4.84-.07 7.23-.18l7.61 29.67c-4.89.4-9.84.62-14.84.62s-9.94-.22-14.83-.62zm44.42-63.26-29.59-115.4-29.62 115.4a117.89 117.89 0 1 1 59.17 0zm118.3-114.12c0-81.54-66.34-147.89-147.89-147.89s-147.88 66.35-147.88 147.89c0 68.76 47.17 126.71 110.85 143.19l-7.48 29.17c-76.68-19.81-133.49-89.58-133.49-172.36 0-98.15 79.86-178 178-178s178 79.85 178 178c0 82.78-56.8 152.55-133.48 172.36l-7.48-29.17c63.68-16.48 110.85-74.43 110.85-143.19zm-185.29 265.41a271.4 271.4 0 0 0 74.81 0l61.63 240.38-198.08.05zm553 1484.05h-412.47v-221.62a103.12 103.12 0 0 0 -103.12-103.13 103.12 103.12 0 0 0 -103.13 103.13v221.62h-412.5v-1018.46h1031.25z"/><path d="m150 1692.71h93.75v249.75h-93.75z"/><path d="m319.96 1692.71h92.54v249.75h-92.54z"/><path d="m768.75 1692.71h93.75v249.75h-93.75z"/><path d="m937.5 1692.71h93.75v249.75h-93.75z"/><path d="m150 1486.46h262.5v103.13h-262.5z"/><path d="m487.5 1486.46h206.25v103.13h-206.25z"/><path d="m768.75 1486.46h262.5v103.13h-262.5z"/><path d="m150 1280.21h262.5v103.13h-262.5z"/><path d="m487.5 1280.21h206.25v103.13h-206.25z"/><path d="m768.75 1280.21h262.5v103.13h-262.5z"/><path d="m150 1073.96h262.5v103.12h-262.5z"/><path d="m487.5 1073.96h206.25v103.12h-206.25z"/><path d="m768.75 1073.96h262.5v103.12h-262.5z"/></svg>